<?xml version="1.0" encoding="UTF-8"?>
<svg xmlns="http://www.w3.org/2000/svg" version="1.1" viewBox="0 0 772.89 278.86">
  <defs>
    <style>
      .cls-1 {
        fill: #497876;
      }

      .cls-2 {
        fill: #ca693e;
      }

      .cls-3 {
        fill: #38474a;
      }
    </style>
  </defs>
  <!-- Generator: Adobe Illustrator 28.7.5, SVG Export Plug-In . SVG Version: 1.2.0 Build 176)  -->
  <g>
    <g id="Layer_17">
      <polygon class="cls-3" points="0 51.1 0 159.02 86.34 205.14 86.34 99.06 0 51.1"/>
    </g>
    <g id="Layer_16">
      <polygon class="cls-2" points="0 176.65 0 234.93 86.34 278.86 86.34 222.63 0 176.65"/>
    </g>
    <g id="Layer_15">
      <polygon class="cls-1" points="102.15 143.35 189.49 100.3 189.49 159.16 102.15 205.14 102.15 143.35"/>
    </g>
    <g id="Layer_14">
      <polygon class="cls-2" points="189.49 41.67 189.49 85.6 102.15 128.58 102.15 85.6 16.75 39.45 104.84 0 189.49 41.67"/>
    </g>
    <g id="Layer_13">
      <polygon class="cls-3" points="102.15 223.22 102.15 278.86 189.49 234.35 189.49 176.65 102.15 223.22"/>
    </g>
    <g id="Layer_8">
      <g>
        <path class="cls-3" d="M211.12,158.38l52.28-117.66h26.89l52.78,117.66h-28.58l-43.2-103.88h10.93l-43.2,103.88h-27.9ZM237.51,133.17l6.89-20.68h60.85l7.06,20.68h-74.8Z"/>
        <path class="cls-3" d="M379.39,158.38V62.9h-37.65v-22.19h102.54v22.19h-37.65v95.48h-27.23Z"/>
        <path class="cls-3" d="M453.35,158.38V40.72h27.4v95.48h58.67v22.19h-86.07Z"/>
        <path class="cls-3" d="M543.63,158.38l52.28-117.66h26.89l52.78,117.66h-28.58l-43.2-103.88h10.93l-43.2,103.88h-27.9ZM570.02,133.17l6.89-20.68h60.85l7.06,20.68h-74.8Z"/>
        <path class="cls-3" d="M723.13,160.4c-9.41,0-18.46-1.26-27.15-3.78-8.69-2.52-15.66-5.8-20.93-9.83l9.25-20.51c4.93,3.59,10.87,6.53,17.82,8.83,6.95,2.3,13.95,3.45,21.01,3.45,5.38,0,9.72-.56,13.03-1.68,3.3-1.12,5.74-2.61,7.31-4.45,1.57-1.85,2.35-4.01,2.35-6.47,0-3.14-1.24-5.63-3.7-7.48-2.47-1.85-5.74-3.36-9.83-4.54-4.09-1.18-8.55-2.3-13.36-3.36-4.82-1.06-9.67-2.35-14.54-3.87s-9.36-3.53-13.45-6.05c-4.09-2.52-7.34-5.83-9.75-9.92-2.41-4.09-3.61-9.22-3.61-15.38,0-6.72,1.79-12.86,5.38-18.41,3.58-5.55,9.05-9.97,16.39-13.28,7.34-3.3,16.56-4.96,27.65-4.96,7.4,0,14.71.9,21.94,2.69,7.23,1.79,13.53,4.37,18.91,7.73l-8.57,20.51c-5.27-3.03-10.7-5.29-16.3-6.81-5.6-1.51-10.99-2.27-16.14-2.27s-9.69.59-12.94,1.77-5.63,2.77-7.14,4.79c-1.51,2.02-2.27,4.26-2.27,6.72,0,3.14,1.23,5.66,3.7,7.56,2.47,1.91,5.72,3.39,9.75,4.45,4.03,1.07,8.51,2.13,13.45,3.19,4.93,1.07,9.8,2.38,14.62,3.95,4.82,1.57,9.25,3.56,13.28,5.97,4.03,2.41,7.31,5.66,9.83,9.75,2.52,4.09,3.78,9.16,3.78,15.21,0,6.61-1.82,12.67-5.46,18.15-3.64,5.49-9.16,9.92-16.56,13.28-7.4,3.36-16.64,5.04-27.74,5.04Z"/>
      </g>
      <path class="cls-3" d="M231.18,234.25v-50.38h-19.73v-7.15h47.59v7.15h-19.73v50.38h-8.14Z"/>
      <path class="cls-3" d="M308.3,234.9c-4.38,0-8.45-.74-12.21-2.22s-7-3.55-9.74-6.21c-2.74-2.66-4.88-5.77-6.41-9.33-1.53-3.56-2.3-7.45-2.3-11.67s.77-8.11,2.3-11.67c1.53-3.56,3.67-6.67,6.41-9.33,2.74-2.66,5.97-4.73,9.7-6.21,3.73-1.48,7.81-2.22,12.25-2.22s8.44.73,12.16,2.18c3.72,1.45,6.96,3.51,9.7,6.16,2.74,2.66,4.86,5.78,6.37,9.37,1.51,3.59,2.26,7.49,2.26,11.71s-.75,8.19-2.26,11.75c-1.51,3.56-3.63,6.67-6.37,9.33-2.74,2.66-5.97,4.71-9.7,6.16-3.73,1.45-7.78,2.18-12.16,2.18ZM308.22,227.59c3.23,0,6.21-.55,8.92-1.64,2.71-1.1,5.07-2.64,7.07-4.64,2-2,3.56-4.34,4.68-7.03,1.12-2.68,1.68-5.62,1.68-8.79s-.56-6.09-1.68-8.75c-1.12-2.66-2.69-5-4.68-7.03-2-2.03-4.36-3.59-7.07-4.68-2.71-1.1-5.68-1.64-8.92-1.64s-6.12.55-8.83,1.64c-2.71,1.1-5.08,2.66-7.11,4.68s-3.6,4.37-4.73,7.03c-1.12,2.66-1.68,5.58-1.68,8.75s.56,6.11,1.68,8.79c1.12,2.69,2.7,5.03,4.73,7.03,2.03,2,4.4,3.55,7.11,4.64,2.71,1.1,5.66,1.64,8.83,1.64Z"/>
      <path class="cls-3" d="M388.05,234.9c-4.38,0-8.45-.74-12.21-2.22s-7-3.55-9.74-6.21c-2.74-2.66-4.88-5.77-6.41-9.33-1.53-3.56-2.3-7.45-2.3-11.67s.77-8.11,2.3-11.67c1.53-3.56,3.67-6.67,6.41-9.33,2.74-2.66,5.97-4.73,9.7-6.21,3.73-1.48,7.81-2.22,12.25-2.22s8.44.73,12.16,2.18c3.72,1.45,6.96,3.51,9.7,6.16,2.74,2.66,4.86,5.78,6.37,9.37,1.51,3.59,2.26,7.49,2.26,11.71s-.75,8.19-2.26,11.75c-1.51,3.56-3.63,6.67-6.37,9.33-2.74,2.66-5.97,4.71-9.7,6.16-3.73,1.45-7.78,2.18-12.16,2.18ZM387.97,227.59c3.23,0,6.21-.55,8.92-1.64,2.71-1.1,5.07-2.64,7.07-4.64,2-2,3.56-4.34,4.68-7.03,1.12-2.68,1.68-5.62,1.68-8.79s-.56-6.09-1.68-8.75c-1.12-2.66-2.69-5-4.68-7.03-2-2.03-4.36-3.59-7.07-4.68-2.71-1.1-5.68-1.64-8.92-1.64s-6.12.55-8.83,1.64c-2.71,1.1-5.08,2.66-7.11,4.68s-3.6,4.37-4.73,7.03c-1.12,2.66-1.68,5.58-1.68,8.75s.56,6.11,1.68,8.79c1.12,2.69,2.7,5.03,4.73,7.03,2.03,2,4.4,3.55,7.11,4.64,2.71,1.1,5.66,1.64,8.83,1.64Z"/>
      <path class="cls-3" d="M437.14,234.25v-57.53h8.22v50.38h31.15v7.15h-39.37Z"/>
      <path class="cls-3" d="M517.14,234.9c-4.38,0-8.58-.67-12.57-2.01-4-1.34-7.15-3.08-9.45-5.22l3.04-6.41c2.19,1.92,4.99,3.51,8.38,4.77,3.4,1.26,6.93,1.89,10.6,1.89,3.34,0,6.05-.38,8.14-1.15,2.08-.77,3.62-1.82,4.6-3.17.99-1.34,1.48-2.86,1.48-4.56,0-1.97-.64-3.56-1.93-4.77-1.29-1.2-2.96-2.18-5.01-2.92-2.05-.74-4.31-1.38-6.78-1.93-2.47-.55-4.95-1.19-7.44-1.93-2.49-.74-4.77-1.68-6.82-2.83-2.05-1.15-3.71-2.7-4.97-4.64-1.26-1.94-1.89-4.45-1.89-7.52s.78-5.68,2.34-8.18c1.56-2.49,3.97-4.49,7.23-6,3.26-1.51,7.41-2.26,12.45-2.26,3.34,0,6.66.44,9.94,1.32,3.29.88,6.14,2.14,8.55,3.78l-2.71,6.58c-2.46-1.64-5.07-2.84-7.81-3.58-2.74-.74-5.4-1.11-7.97-1.11-3.23,0-5.89.41-7.97,1.23-2.08.82-3.6,1.92-4.56,3.29-.96,1.37-1.44,2.9-1.44,4.6,0,2.03.64,3.64,1.93,4.85,1.29,1.21,2.96,2.17,5.01,2.88,2.05.71,4.32,1.36,6.78,1.93,2.47.58,4.94,1.22,7.44,1.93,2.49.71,4.77,1.64,6.82,2.79,2.05,1.15,3.71,2.69,4.97,4.6,1.26,1.92,1.89,4.38,1.89,7.4s-.79,5.6-2.38,8.09c-1.59,2.49-4.04,4.49-7.36,6-3.32,1.51-7.49,2.26-12.53,2.26Z"/>
    </g>
  </g>
</svg>