<?xml version="1.0" encoding="UTF-8"?>
<svg id="Layer_1" xmlns="http://www.w3.org/2000/svg" viewBox="0 0 273.15 401.97">
  <defs>
    <style>
      .cls-1 {
        fill: #497876;
      }

      .cls-2 {
        fill: #ca693e;
      }

      .cls-3 {
        fill: #38474a;
      }
    </style>
  </defs>
  <polygon class="cls-3" points="0 73.66 0 229.22 124.45 295.71 124.45 142.8 0 73.66"/>
  <polygon class="cls-2" points="0 254.64 0 338.65 124.45 401.97 124.45 320.92 0 254.64"/>
  <polygon class="cls-1" points="147.25 206.63 273.15 144.58 273.15 229.43 147.25 295.71 147.25 206.63"/>
  <polygon class="cls-2" points="147.25 185.34 273.15 123.39 273.15 60.07 147.25 123.39 147.25 185.34"/>
  <path class="cls-2" d="M147.25,123.39L24.15,56.87,151.12,0l122.03,60.07-125.9,63.32Z"/>
  <polygon class="cls-3" points="147.25 321.77 147.25 401.97 273.15 337.81 273.15 254.64 147.25 321.77"/>
</svg>